<svg xmlns="http://www.w3.org/2000/svg" width="512" height="512" viewBox="0 0 100 100"><rect width="100" height="100" rx="22" fill="#1a73e8"/><path d="M 41 33 C 34 27 31 19 35 11" fill="none" stroke="#ffffff" stroke-width="6" stroke-linecap="round"/><path d="M 59 33 C 66 27 69 19 65 11" fill="none" stroke="#ffffff" stroke-width="6" stroke-linecap="round"/><ellipse cx="27" cy="43" rx="10" ry="5.5" fill="#ffffff" transform="rotate(-25 27 43)"/><ellipse cx="73" cy="43" rx="10" ry="5.5" fill="#ffffff" transform="rotate(25 73 43)"/><path d="M 50 30 C 61 30 67 38 67 48 C 67 57 62 63 56 67 L 54 71 C 53 73.5 51.5 75 50 75 C 48.5 75 47 73.5 46 71 L 44 67 C 38 63 33 57 33 48 C 33 38 39 30 50 30 Z" fill="#ffffff"/><path d="M 47 73 L 53 73 L 50 85 Z" fill="#ffffff"/><circle cx="43" cy="47" r="2.6" fill="#1a73e8"/><circle cx="57" cy="47" r="2.6" fill="#1a73e8"/></svg>